<svg xmlns="http://www.w3.org/2000/svg" viewBox="0 0 880 240" role="img" aria-label="ARyS - Administracion de Redes y Seguridad">
  <defs>
    <linearGradient id="arysShieldH" x1="0" y1="0" x2="0" y2="1">
      <stop offset="0" stop-color="#0A63C4"/>
      <stop offset="1" stop-color="#004992"/>
    </linearGradient>
  </defs>
  <g transform="translate(16,12) scale(0.42)">
    <path d="M256 32 L448 104 V282 C448 392 256 480 256 480 C256 480 64 392 64 282 V104 Z" fill="url(#arysShieldH)"/>
    <path d="M256 32 L448 104 V282 C448 392 256 480 256 480 C256 480 64 392 64 282 V104 Z" fill="none" stroke="#FF9900" stroke-width="16"/>
    <g stroke="#FFFFFF" stroke-width="13" stroke-linecap="round" opacity="0.92">
      <line x1="256" y1="168" x2="160" y2="248"/>
      <line x1="256" y1="168" x2="352" y2="248"/>
      <line x1="160" y1="248" x2="256" y2="332"/>
      <line x1="352" y1="248" x2="256" y2="332"/>
      <line x1="160" y1="248" x2="352" y2="248"/>
    </g>
    <g fill="#FFFFFF">
      <circle cx="160" cy="248" r="29"/><circle cx="352" cy="248" r="29"/><circle cx="256" cy="332" r="29"/>
    </g>
    <circle cx="256" cy="168" r="36" fill="#FF9900"/>
    <circle cx="256" cy="168" r="36" fill="none" stroke="#FFFFFF" stroke-width="9"/>
  </g>
  <text x="248" y="118" font-family="Verdana, Geneva, DejaVu Sans, sans-serif" font-size="94" font-weight="700" letter-spacing="2" fill="#004992">AR<tspan fill="#FF9900">y</tspan>S</text>
  <text x="252" y="168" font-family="Verdana, Geneva, DejaVu Sans, sans-serif" font-size="27" letter-spacing="1.5" fill="#3A4A5C">Administración de Redes y Seguridad</text>
  <text x="252" y="204" font-family="Verdana, Geneva, DejaVu Sans, sans-serif" font-size="22" letter-spacing="1.5" fill="#7A8794">IF046 · UNPSJB · Sede Trelew</text>
</svg>
